<svg width="25" height="25" viewBox="0 0 25 25" fill="none" xmlns="http://www.w3.org/2000/svg">
    <path d="M0.125 2.875V22.125C0.125 23.6375 1.34875 24.875 2.875 24.875H22.125C23.6375 24.875 24.875 23.6375 24.875 22.125V2.875C24.875 1.3625 23.6375 0.125 22.125 0.125H2.875C1.34875 0.125 0.125 1.3625 0.125 2.875ZM16.625 8.375C16.625 10.6575 14.7825 12.5 12.5 12.5C10.2175 12.5 8.375 10.6575 8.375 8.375C8.375 6.0925 10.2175 4.25 12.5 4.25C14.7825 4.25 16.625 6.0925 16.625 8.375ZM4.25 19.375C4.25 16.625 9.75 15.1125 12.5 15.1125C15.25 15.1125 20.75 16.625 20.75 19.375V20.75H4.25V19.375Z" fill="#879472"/>
</svg>
