<svg xmlns="http://www.w3.org/2000/svg" xmlns:xlink="http://www.w3.org/1999/xlink" width="1024" zoomAndPan="magnify" viewBox="0 0 768 767.999994" height="1024" preserveAspectRatio="xMidYMid meet" version="1.0"><defs><clipPath id="8d5fb0f6b2"><path d="M 11.625 11.625 L 756.375 11.625 L 756.375 756.375 L 11.625 756.375 Z M 11.625 11.625 " clip-rule="nonzero"/></clipPath></defs><g clip-path="url(#8d5fb0f6b2)"><path fill="#879472" d="M 235.046875 607.417969 C 193.902344 607.417969 160.945312 640.746094 160.945312 681.890625 C 160.945312 723.039062 193.902344 756.363281 235.046875 756.363281 C 276.195312 756.363281 309.523438 723.039062 309.523438 681.890625 C 309.523438 640.746094 276.195312 607.417969 235.046875 607.417969 Z M 11.625 11.625 L 11.625 86.101562 L 86.101562 86.101562 L 219.96875 368.542969 L 169.699219 459.773438 C 163.925781 470.570312 160.574219 482.671875 160.574219 495.707031 C 160.574219 536.851562 193.902344 570.179688 235.046875 570.179688 L 681.890625 570.179688 L 681.890625 495.707031 L 250.875 495.707031 C 245.660156 495.707031 241.566406 491.609375 241.566406 486.398438 C 241.566406 484.722656 241.9375 483.230469 242.683594 481.929688 L 276.007812 421.234375 L 553.425781 421.234375 C 581.351562 421.234375 605.742188 405.78125 618.589844 382.878906 L 751.710938 141.210938 C 754.6875 136 756.363281 129.855469 756.363281 123.335938 C 756.363281 102.671875 739.609375 86.101562 719.128906 86.101562 L 168.582031 86.101562 L 133.207031 11.625 Z M 607.417969 607.417969 C 566.269531 607.417969 533.316406 640.746094 533.316406 681.890625 C 533.316406 723.039062 566.269531 756.363281 607.417969 756.363281 C 648.5625 756.363281 681.890625 723.039062 681.890625 681.890625 C 681.890625 640.746094 648.5625 607.417969 607.417969 607.417969 Z M 607.417969 607.417969 " fill-opacity="1" fill-rule="nonzero"/></g></svg>