<svg width="1440" height="435" viewBox="0 0 1440 435" fill="none" xmlns="http://www.w3.org/2000/svg">
    <path d="M1021 193L931.5 101.5L1109 107.5L1193.5 198.5L1021 193Z" fill="#879472" stroke="#879472"/>
    <path d="M995 147L976 128H989.5L1009 147H995Z" fill="#64675A"/>
    <path d="M1026 177L1007 158H1020.5L1040 177H1026Z" fill="#64675A"/>
    <rect x="35" y="252" width="184" height="96" fill="#D6CDBB"/>
    <path d="M536.5 371L448.5 435L622 434.5L536.5 371Z" fill="#879472"/>
    <path d="M795.5 370.5L803.5 372V405L795.5 399M795.5 370.5V399M795.5 370.5L785.5 372V392L795.5 399" stroke="black"/>
    <path d="M1151 374V438H1028V374H1151Z" fill="#64675A" stroke="#64675A"/>
    <rect x="-14" y="214" width="49" height="133" fill="#D9D9D9"/>
    <path d="M1188 208.51L1020 205V341H1188V208.51Z" fill="#3D3F38"/>
    <path d="M937.5 118L875.5 184V295.5H1021V206L937.5 118Z" fill="#64675A"/>
    <rect x="792" y="213" width="84" height="29" fill="#474844"/>
    <rect x="745" y="213" width="54" height="53" fill="#7E8271"/>
    <path d="M796 213.413L786 223.5L876 221.486V211.394L837.739 168L796 213.413Z" fill="#879472"/>
    <path d="M1232 174.5C1216.8 164.9 1209.67 244.5 1208 285.5C1221.17 284 1247.5 280.7 1247.5 279.5C1247.5 278 1251 186.5 1232 174.5Z" fill="#5B8370"/>
    <path d="M698.508 53.5198C687.42 47.2512 682.216 99.228 681 126C690.605 125.021 709.815 122.866 709.815 122.082C709.815 121.103 712.368 61.3555 698.508 53.5198Z" fill="#5B8370"/>
    <path d="M1258 273.5L1137.2 391H1012L1123 282.5L1258 273.5Z" fill="#879472"/>
    <path d="M1179.5 333.5L1152.5 360.5H1145L1172 333.5H1179.5Z" fill="#64675A"/>
    <path d="M1163.5 333.5L1136.5 360.5H1129L1156 333.5H1163.5Z" fill="#64675A"/>
    <path d="M1266 211.5V280V435.5H1441V211.5H1266Z" fill="#879472"/>
    <path d="M1376.5 386L1258 273.5L1254 277.5L1367.5 386H1376.5Z" fill="#BBBBBB"/>
    <rect x="236" y="200" width="229" height="105" fill="#879472"/>
    <path d="M324 365.5L233 285.5H456V296.5L538 365.5H324Z" fill="#64675A" stroke="#64675A"/>
    <rect x="1252" y="203" width="188" height="9" fill="#64675A"/>
    <rect x="1298" y="150" width="143" height="53" fill="#D7DA9B"/>
    <path d="M1373.5 85L1449.28 150.25H1297.72L1373.5 85Z" fill="#D6CDBB"/>
    <path d="M1418.5 85H1373.5L1440 143V101.281L1418.5 85Z" fill="#64675A"/>
    <rect x="684" y="108" width="62" height="220" fill="#64675A"/>
    <rect x="584" y="107" width="62" height="220" fill="#64675A"/>
    <path d="M704.5 313.5C730.333 272.167 807.9 196 911.5 222C1041 254.5 1086 378.5 1094 418.5C1094.9 423.025 1095.63 426.683 1096.21 429.602L1107.5 435H1097.28C1098.73 442.398 1098.15 439.8 1097.15 435H677.5V309C681.5 308.333 692.5 308.3 704.5 313.5Z" fill="#73A990"/>
    <path d="M876 184V172L931.5 111.5L937.5 118L876 184Z" fill="#474844"/>
    <path d="M750.5 368.5L536.5 371L622.5 435H657.5L750.5 368.5Z" fill="#64675A"/>
    <path d="M750.5 368.5L846.5 435H657.5L750.5 368.5Z" fill="#879472"/>
    <rect x="594.5" y="107.5" width="89" height="214" fill="#879472" stroke="#879472"/>
    <rect x="605" y="208" width="16" height="30" fill="#64675A"/>
    <path d="M628.651 201.483C618.735 186.634 606.085 286.974 601 339H642C641.682 299.348 638.567 216.331 628.651 201.483Z" fill="#5B8370"/>
    <path d="M638.023 3.08798C626.898 -7.80804 612.705 65.8227 607 104H653C652.643 74.9027 649.149 13.984 638.023 3.08798Z" fill="#5B8370"/>
    <path d="M377.209 1.08798C370.679 -9.80804 362.349 63.8227 359 102H386C385.791 72.9027 383.74 11.984 377.209 1.08798Z" fill="#5B8370"/>
    <path d="M684 315.5H456L520.5 371L736 369L684 326V315.5Z" fill="#D6CDBB"/>
    <rect x="1140" y="251" width="5" height="47" fill="#D7DA9B"/>
    <path d="M1157 287.272L1145 298V251H1157V287.272Z" fill="#64675A"/>
    <rect x="464" y="109" width="120" height="85" fill="#A4AF91"/>
    <rect x="314" y="117" width="150" height="76" fill="#C8CAA2"/>
    <rect x="314" y="109" width="150" height="8" fill="#989F8B"/>
    <path d="M494.5 109H309.5L455.5 43.5L494.5 109Z" fill="#879472"/>
    <rect x="465" y="200" width="119" height="116" fill="#484A42"/>
    <rect x="219.5" y="193.5" width="367" height="7" fill="#64675A" stroke="#64675A"/>
    <rect x="243" y="213" width="8" height="5" fill="#64675A"/>
    <rect x="240" y="244" width="8" height="5" fill="#64675A"/>
    <path d="M254.5 203.5C249.3 194.7 242.667 254.167 240 285H261.5C261.333 261.5 259.7 212.3 254.5 203.5Z" fill="#5B8370"/>
    <path d="M1278.15 354.812C1262.85 345.022 1255.68 426.192 1254 468C1267.25 466.47 1293.74 463.105 1293.74 461.882C1293.74 460.352 1297.27 367.048 1278.15 354.812Z" fill="#5B8370"/>
    <path d="M577 109V57H495V109H577Z" fill="#909881"/>
    <path d="M499 57.5L581.5 109.5L494.5 109L455.5 43.5L552.5 45.5L577.5 57.5H499Z" fill="#64675A"/>
    <path d="M502 34.5V68.5L511.5 76.5V33L502 34.5Z" fill="#D7DA9B"/>
    <path d="M518 76.5H511.5V33.5L518 36.5V76.5Z" fill="#879472"/>
    <rect x="560" y="62" width="10" height="33" fill="#484A42"/>
    <rect x="335" y="127" width="18" height="19" fill="#879472"/>
    <rect x="335" y="148" width="18" height="19" fill="#879472"/>
    <rect x="425" y="127" width="18" height="19" fill="#879472"/>
    <rect x="425" y="148" width="18" height="19" fill="#879472"/>
    <rect x="471" y="126" width="14" height="38" fill="#64675A"/>
    <rect x="560" y="132" width="14" height="38" fill="#64675A"/>
    <rect x="605" y="129" width="16" height="30" fill="#64675A"/>
    <rect x="656" y="129" width="16" height="30" fill="#64675A"/>
    <rect x="705" y="129" width="16" height="30" fill="#D7DA9B"/>
    <rect x="705" y="207" width="16" height="30" fill="#3D3D3D"/>
    <rect x="656" y="208" width="16" height="30" fill="#64675A"/>
    <rect x="1102" y="227" width="12" height="22" fill="#D7DA9B"/>
    <rect x="1102" y="251" width="12" height="22" fill="#D7DA9B"/>
    <rect x="1080" y="227" width="12" height="22" fill="#262625"/>
    <rect x="1080" y="251" width="12" height="22" fill="#262625"/>
    <rect x="1037" y="227" width="12" height="22" fill="#D7DA9B"/>
    <rect x="1037" y="251" width="12" height="22" fill="#D7DA9B"/>
    <rect x="1123" y="227" width="12" height="22" fill="#D7DA9B"/>
    <rect x="1123" y="251" width="12" height="22" fill="#D7DA9B"/>
    <rect x="1141" y="227" width="12" height="22" fill="#262625"/>
    <rect x="1164" y="227" width="12" height="22" fill="#262625"/>
    <rect x="1164" y="251" width="12" height="22" fill="#262625"/>
    <rect x="1168" y="247" width="7" height="63" fill="#D7DA9B"/>
    <path d="M1187.5 295L1175 310V247H1187.5V295Z" fill="#64675A"/>
    <rect x="658" y="173" width="14" height="9" fill="#D7DA9B"/>
    <rect x="658" y="261" width="14" height="9" fill="#D7DA9B"/>
    <rect x="306" y="239" width="23" height="46" fill="#D7DA9B"/>
    <rect x="396" y="240" width="17" height="45" fill="#5D6058"/>
    <rect x="417" y="240" width="17" height="45" fill="#5D6058"/>
    <rect x="471" y="240" width="17" height="48" fill="#64675A"/>
    <rect x="493" y="240" width="17" height="48" fill="#64675A"/>
    <path d="M-1.5 213V145L197.5 155.5L219 191V254.5H189L148.5 159.5L109.5 252H40L-1.5 213Z" fill="#A6AD8F"/>
    <path d="M148.5 160L108.5 254L189 255L148.5 160Z" fill="#D6CDBB"/>
    <rect x="219" y="200" width="18" height="120" fill="#64675A"/>
    <rect x="325" y="366" width="102" height="83" fill="#454643"/>
    <path d="M139.5 386.5V206H169.5V386.5H139.5Z" fill="#D7DA9B" stroke="#D7DA9B"/>
    <path d="M189 206H169.5V380H189V206Z" fill="#879472"/>
    <rect x="164" y="377" width="161" height="84" fill="#4D4E49"/>
    <path d="M392 371L293 434.5H448.5L536.5 371H392Z" fill="#D7DA9B"/>
    <path d="M233.363 304V286L326 365.5V378H163L233.363 304Z" fill="#717865"/>
    <path d="M57 161.5L109 252.5L149.5 158L57 161.5Z" fill="#D7DA9B"/>
    <rect x="55" y="119" width="10" height="73" fill="#64675A"/>
    <path d="M45.5 182L55 192V119H45.5V182Z" fill="#D7DA9B"/>
    <rect x="123" y="198" width="66" height="8" fill="#64675A"/>
    <rect x="62" y="290" width="17" height="12" fill="#64675A"/>
    <rect x="62" y="306" width="17" height="12" fill="#64675A"/>
    <rect x="115" y="290" width="17" height="12" fill="#64675A"/>
    <rect x="115" y="306" width="17" height="12" fill="#64675A"/>
    <path d="M140 360V347.5H0V423.5V435H221.5L140 360Z" fill="#879472"/>
    <path d="M160 198L146 166L149.5 158L165.5 198H160Z" fill="#6C6C6C"/>
    <path d="M931.5 111.5L873 175.5V162L931.5 101.5L1020.5 193L1013 197.5L931.5 111.5Z" fill="#9EAC88"/>
    <rect x="905" y="162" width="19" height="39" fill="#D7DA9B"/>
    <rect x="947" y="162" width="19" height="39" fill="#3D3D3D"/>
    <rect x="904" y="156" width="21" height="3" fill="#3D3D3D"/>
    <rect x="946" y="156" width="21" height="3" fill="#3D3D3D"/>
    <rect x="904" y="204" width="21" height="3" fill="#3D3D3D"/>
    <rect x="946" y="204" width="21" height="3" fill="#3D3D3D"/>
    <path d="M1324 240.5C1309.6 237.3 1295 370.167 1289.5 437H1342.5C1342.33 372.833 1338.4 243.7 1324 240.5Z" fill="#5B8370"/>
    <path d="M1151.5 377V436L1362.5 435.5V381L1254 277.5L1151.5 377Z" fill="#9B9E8F"/>
    <rect x="1361" y="238" width="21" height="45" fill="#64675A"/>
    <rect x="1312" y="238" width="21" height="45" fill="#64675A"/>
    <path d="M1324 240.5C1309.6 237.3 1295 370.167 1289.5 437H1342.5C1342.33 372.833 1338.4 243.7 1324 240.5Z" fill="#5B8370"/>
    <path d="M1370.1 238.058C1354.62 234.77 1338.92 371.316 1333 440H1390C1389.82 374.056 1385.59 241.347 1370.1 238.058Z" fill="#5B8370"/>
    <rect x="1215" y="343" width="19" height="38" fill="#64675A"/>
    <rect x="1177" y="400" width="68" height="38" fill="#64675A"/>
    <rect x="1274" y="343" width="19" height="38" fill="#64675A"/>
    <rect x="337" y="214" width="7" height="4" fill="#64675A"/>
    <rect x="337" y="240" width="7" height="4" fill="#64675A"/>
    <rect x="410" y="213" width="7" height="4" fill="#64675A"/>
    <rect x="456" y="220" width="7" height="4" fill="#64675A"/>
    <rect x="453" y="273" width="7" height="4" fill="#64675A"/>
    <rect x="365" y="273" width="7" height="4" fill="#64675A"/>
    <rect x="267" y="272" width="8" height="5" fill="#64675A"/>
    <rect x="268" y="237" width="8" height="5" fill="#64675A"/>
    <rect x="272" y="215" width="8" height="5" fill="#64675A"/>
    <rect x="577" y="103" width="169" height="7" fill="#41433B"/>
    <rect x="589" y="33" width="18" height="70" fill="#41433B"/>
    <path d="M786.5 168L745.5 209V223H786.5L837.5 168H786.5Z" fill="#D6CDBB"/>
    <rect x="749" y="234" width="3" height="6" fill="#64675A"/>
    <rect x="761" y="234" width="3" height="6" fill="#64675A"/>
    <rect x="773" y="234" width="3" height="6" fill="#64675A"/>
    <path d="M1020 193L1013 197.5L1020 205L1191.5 209V199L1020 193Z" fill="#D7DA9B"/>
    <rect x="1063" y="66" width="10" height="74" fill="#D7DA9B"/>
    <path d="M1053 66H1063V139L1053 129V66Z" fill="#64675A" stroke="#64675A"/>
    <rect x="1402" y="238" width="21" height="45" fill="#64675A"/>
    <rect x="1402" y="312" width="21" height="45" fill="#D7DA9B"/>
    <rect x="1324" y="173" width="14" height="11" fill="#D9D9D9"/>
    <rect x="1324" y="188" width="14" height="11" fill="#D9D9D9"/>
    <rect x="1324" y="173" width="14" height="11" fill="#64675A"/>
    <rect x="1324" y="187" width="14" height="12" fill="#64675A"/>
    <rect x="1365" y="173" width="14" height="11" fill="#64675A"/>
    <rect x="1365" y="187" width="14" height="12" fill="#64675A"/>
    <rect x="1365" y="112" width="14" height="11" fill="#64675A"/>
    <rect x="1365" y="126" width="14" height="12" fill="#64675A"/>
    <rect x="1413" y="173" width="14" height="11" fill="#64675A"/>
    <rect x="1413" y="187" width="14" height="12" fill="#64675A"/>
    <rect x="274" y="397" width="32" height="25" fill="#3D3D3D"/>
    <rect x="221" y="397" width="22" height="20" fill="#3D3D3D"/>
    <path d="M247.535 354.875C241.247 346.115 233.225 405.308 230 436H256C255.798 412.608 253.823 363.634 247.535 354.875Z" fill="#5B8370"/>
    <path d="M455.5 333.5L420.5 371H520.5L456 315.5L455.5 333.5Z" fill="#A6AD8F"/>
    <path d="M41 252H29L0 223.12V214L41 252Z" fill="#D7DA9B"/>
    <path d="M904.5 376C866 364.667 788.2 328.4 785 274" stroke="#64675A" stroke-width="2"/>
    <path d="M904 409.5C938.667 404.667 1014 386.8 1038 354" stroke="#64675A" stroke-width="2"/>
    <path d="M904.5 313.5C916.667 315.333 945.6 315.8 964 303" stroke="#64675A" stroke-width="2"/>
    <path d="M790 375V396L798 401.5V375H790Z" fill="#D7DA9B"/>
    <path d="M804 376.269L798 375V401.5L804 405.5V376.269Z" fill="#64675A"/>
    <ellipse cx="716" cy="144" rx="2" ry="3" fill="#3D3D3D"/>
    <rect x="712.801" y="146" width="5.06408" height="14.0726" rx="1" transform="rotate(13.4967 712.801 146)" fill="#3D3D3D"/>
    <path d="M720 159L716.5 147L715 151L717.5 159H720Z" fill="#3D3D3D"/>
    <ellipse cx="1.90772" cy="2.86158" rx="1.90772" ry="2.86158" transform="matrix(-1 0 0 1 912.723 184)" fill="#3D3D3D"/>
    <rect width="4.83042" height="13.4233" rx="1" transform="matrix(-0.972383 0.233389 0.233389 0.972383 913.867 188.769)" fill="#3D3D3D"/>
    <path d="M907 201.169L910.338 189.723L911.769 193.539L909.385 201.169H907Z" fill="#3D3D3D"/>
    <path d="M918 201H911V203H918V201Z" fill="#64675A"/>
    <path d="M715 159H709V161H715V159Z" fill="#64675A"/>
    <path d="M716.63 138V42H694H741" stroke="#64675A"/>
    <rect x="691" y="18" width="54" height="21" rx="3" fill="white"/>
    <path d="M697.199 28.6C697.199 27.95 697.309 27.315 697.529 26.695C697.759 26.065 698.089 25.495 698.519 24.985C698.949 24.465 699.479 24.055 700.109 23.755C700.739 23.445 701.454 23.29 702.254 23.29C703.204 23.29 704.014 23.51 704.684 23.95C705.364 24.38 705.864 24.935 706.184 25.615L705.359 26.125C705.129 25.655 704.839 25.285 704.489 25.015C704.139 24.735 703.764 24.535 703.364 24.415C702.974 24.295 702.584 24.235 702.194 24.235C701.554 24.235 700.989 24.365 700.499 24.625C700.009 24.875 699.594 25.215 699.254 25.645C698.924 26.065 698.674 26.54 698.504 27.07C698.334 27.59 698.249 28.12 698.249 28.66C698.249 29.25 698.349 29.815 698.549 30.355C698.749 30.895 699.029 31.375 699.389 31.795C699.749 32.205 700.169 32.535 700.649 32.785C701.139 33.025 701.669 33.145 702.239 33.145C702.639 33.145 703.049 33.075 703.469 32.935C703.889 32.795 704.279 32.58 704.639 32.29C705.009 32 705.304 31.625 705.524 31.165L706.394 31.615C706.174 32.145 705.834 32.595 705.374 32.965C704.914 33.335 704.399 33.615 703.829 33.805C703.269 33.995 702.719 34.09 702.179 34.09C701.449 34.09 700.779 33.935 700.169 33.625C699.559 33.305 699.029 32.885 698.579 32.365C698.139 31.835 697.799 31.245 697.559 30.595C697.319 29.935 697.199 29.27 697.199 28.6ZM707.348 31.75C707.348 31.26 707.488 30.84 707.768 30.49C708.048 30.13 708.433 29.855 708.923 29.665C709.423 29.465 709.998 29.365 710.648 29.365C711.028 29.365 711.423 29.395 711.833 29.455C712.243 29.515 712.608 29.605 712.928 29.725V29.065C712.928 28.405 712.733 27.88 712.343 27.49C711.953 27.1 711.413 26.905 710.723 26.905C710.303 26.905 709.888 26.985 709.478 27.145C709.078 27.295 708.658 27.52 708.218 27.82L707.828 27.1C708.338 26.75 708.838 26.49 709.328 26.32C709.818 26.14 710.318 26.05 710.828 26.05C711.788 26.05 712.548 26.325 713.108 26.875C713.668 27.425 713.948 28.185 713.948 29.155V32.77C713.948 32.91 713.978 33.015 714.038 33.085C714.098 33.145 714.193 33.18 714.323 33.19V34C714.213 34.01 714.118 34.02 714.038 34.03C713.958 34.04 713.898 34.04 713.858 34.03C713.608 34.02 713.418 33.94 713.288 33.79C713.158 33.64 713.088 33.48 713.078 33.31L713.063 32.74C712.713 33.19 712.258 33.54 711.698 33.79C711.138 34.03 710.568 34.15 709.988 34.15C709.488 34.15 709.033 34.045 708.623 33.835C708.223 33.615 707.908 33.325 707.678 32.965C707.458 32.595 707.348 32.19 707.348 31.75ZM712.583 32.35C712.693 32.21 712.778 32.075 712.838 31.945C712.898 31.815 712.928 31.7 712.928 31.6V30.46C712.588 30.33 712.233 30.23 711.863 30.16C711.503 30.09 711.138 30.055 710.768 30.055C710.038 30.055 709.448 30.2 708.998 30.49C708.548 30.78 708.323 31.175 708.323 31.675C708.323 31.965 708.398 32.24 708.548 32.5C708.698 32.75 708.918 32.96 709.208 33.13C709.498 33.29 709.838 33.37 710.228 33.37C710.718 33.37 711.173 33.275 711.593 33.085C712.023 32.895 712.353 32.65 712.583 32.35ZM716.468 34V26.995H715.388V26.185H716.468V25.975C716.468 25.335 716.558 24.785 716.738 24.325C716.928 23.865 717.193 23.515 717.533 23.275C717.883 23.025 718.293 22.9 718.763 22.9C719.073 22.9 719.373 22.945 719.663 23.035C719.953 23.125 720.203 23.245 720.413 23.395L720.098 24.13C719.968 24.02 719.798 23.935 719.588 23.875C719.378 23.815 719.168 23.785 718.958 23.785C718.488 23.785 718.123 23.97 717.863 24.34C717.613 24.71 717.488 25.245 717.488 25.945V26.185H719.648V26.995H717.488V34H716.468ZM724.17 34.15C723.61 34.15 723.09 34.045 722.61 33.835C722.13 33.615 721.715 33.32 721.365 32.95C721.015 32.57 720.74 32.135 720.54 31.645C720.35 31.155 720.255 30.63 720.255 30.07C720.255 29.34 720.42 28.67 720.75 28.06C721.09 27.45 721.555 26.965 722.145 26.605C722.735 26.235 723.405 26.05 724.155 26.05C724.925 26.05 725.595 26.235 726.165 26.605C726.745 26.975 727.2 27.465 727.53 28.075C727.86 28.675 728.025 29.335 728.025 30.055C728.025 30.135 728.025 30.215 728.025 30.295C728.025 30.365 728.02 30.42 728.01 30.46H721.32C721.37 31.02 721.525 31.52 721.785 31.96C722.055 32.39 722.4 32.735 722.82 32.995C723.25 33.245 723.715 33.37 724.215 33.37C724.725 33.37 725.205 33.24 725.655 32.98C726.115 32.72 726.435 32.38 726.615 31.96L727.5 32.2C727.34 32.57 727.095 32.905 726.765 33.205C726.435 33.505 726.045 33.74 725.595 33.91C725.155 34.07 724.68 34.15 724.17 34.15ZM721.29 29.725H727.065C727.025 29.155 726.87 28.655 726.6 28.225C726.34 27.795 725.995 27.46 725.565 27.22C725.145 26.97 724.68 26.845 724.17 26.845C723.66 26.845 723.195 26.97 722.775 27.22C722.355 27.46 722.01 27.8 721.74 28.24C721.48 28.67 721.33 29.165 721.29 29.725ZM724.47 24.7L723.795 24.445L724.68 23.05H725.76L724.47 24.7ZM734.607 30.97C734.607 30.53 734.652 30.155 734.742 29.845C734.842 29.525 734.982 29.25 735.162 29.02C735.352 28.79 735.592 28.59 735.882 28.42C736.072 28.3 736.287 28.175 736.527 28.045C736.777 27.915 737.007 27.765 737.217 27.595C737.437 27.415 737.617 27.2 737.757 26.95C737.897 26.69 737.967 26.38 737.967 26.02C737.967 25.58 737.867 25.22 737.667 24.94C737.477 24.65 737.227 24.435 736.917 24.295C736.607 24.145 736.277 24.07 735.927 24.07C735.577 24.07 735.242 24.14 734.922 24.28C734.612 24.41 734.337 24.59 734.097 24.82C733.857 25.05 733.662 25.31 733.512 25.6L732.807 25.15C732.997 24.74 733.252 24.39 733.572 24.1C733.902 23.81 734.272 23.59 734.682 23.44C735.092 23.29 735.512 23.215 735.942 23.215C736.312 23.215 736.672 23.275 737.022 23.395C737.372 23.505 737.682 23.68 737.952 23.92C738.232 24.16 738.452 24.46 738.612 24.82C738.782 25.17 738.867 25.59 738.867 26.08C738.867 26.48 738.812 26.82 738.702 27.1C738.592 27.37 738.437 27.605 738.237 27.805C738.047 27.995 737.832 28.165 737.592 28.315C737.352 28.465 737.102 28.61 736.842 28.75C736.612 28.88 736.392 29.025 736.182 29.185C735.972 29.345 735.802 29.565 735.672 29.845C735.542 30.115 735.477 30.49 735.477 30.97H734.607ZM734.622 34V32.395H735.507V34H734.622Z" fill="#64675A"/>
    <rect x="854" y="46" width="110" height="20" rx="3" fill="white"/>
    <path d="M858.907 59.665C859.117 59.815 859.392 59.945 859.732 60.055C860.082 60.165 860.482 60.22 860.932 60.22C861.452 60.22 861.872 60.135 862.192 59.965C862.512 59.785 862.757 59.52 862.927 59.17C863.097 58.81 863.212 58.365 863.272 57.835C863.332 57.305 863.362 56.685 863.362 55.975V50.35H864.412V55.765C864.412 56.565 864.372 57.295 864.292 57.955C864.212 58.615 864.057 59.185 863.827 59.665C863.597 60.145 863.252 60.515 862.792 60.775C862.332 61.035 861.722 61.165 860.962 61.165C860.472 61.165 860.037 61.11 859.657 61C859.277 60.89 858.927 60.725 858.607 60.505L858.907 59.665ZM869.987 61.15C869.427 61.15 868.907 61.045 868.427 60.835C867.947 60.615 867.532 60.32 867.182 59.95C866.832 59.57 866.557 59.135 866.357 58.645C866.167 58.155 866.072 57.63 866.072 57.07C866.072 56.34 866.237 55.67 866.567 55.06C866.907 54.45 867.372 53.965 867.962 53.605C868.552 53.235 869.222 53.05 869.972 53.05C870.742 53.05 871.412 53.235 871.982 53.605C872.562 53.975 873.017 54.465 873.347 55.075C873.677 55.675 873.842 56.335 873.842 57.055C873.842 57.135 873.842 57.215 873.842 57.295C873.842 57.365 873.837 57.42 873.827 57.46H867.137C867.187 58.02 867.342 58.52 867.602 58.96C867.872 59.39 868.217 59.735 868.637 59.995C869.067 60.245 869.532 60.37 870.032 60.37C870.542 60.37 871.022 60.24 871.472 59.98C871.932 59.72 872.252 59.38 872.432 58.96L873.317 59.2C873.157 59.57 872.912 59.905 872.582 60.205C872.252 60.505 871.862 60.74 871.412 60.91C870.972 61.07 870.497 61.15 869.987 61.15ZM867.107 56.725H872.882C872.842 56.155 872.687 55.655 872.417 55.225C872.157 54.795 871.812 54.46 871.382 54.22C870.962 53.97 870.497 53.845 869.987 53.845C869.477 53.845 869.012 53.97 868.592 54.22C868.172 54.46 867.827 54.8 867.557 55.24C867.297 55.67 867.147 56.165 867.107 56.725ZM881.804 61.15C881.164 61.15 880.569 61.045 880.019 60.835C879.469 60.625 878.994 60.305 878.594 59.875L879.014 59.155C879.454 59.565 879.894 59.865 880.334 60.055C880.784 60.235 881.259 60.325 881.759 60.325C882.369 60.325 882.864 60.205 883.244 59.965C883.624 59.715 883.814 59.36 883.814 58.9C883.814 58.59 883.719 58.355 883.529 58.195C883.349 58.025 883.084 57.89 882.734 57.79C882.394 57.68 881.984 57.565 881.504 57.445C880.964 57.295 880.509 57.14 880.139 56.98C879.779 56.81 879.504 56.6 879.314 56.35C879.134 56.09 879.044 55.755 879.044 55.345C879.044 54.835 879.169 54.415 879.419 54.085C879.679 53.745 880.029 53.49 880.469 53.32C880.919 53.14 881.419 53.05 881.969 53.05C882.569 53.05 883.099 53.145 883.559 53.335C884.019 53.525 884.394 53.79 884.684 54.13L884.189 54.82C883.909 54.5 883.574 54.265 883.184 54.115C882.804 53.955 882.379 53.875 881.909 53.875C881.589 53.875 881.284 53.92 880.994 54.01C880.704 54.09 880.464 54.23 880.274 54.43C880.094 54.62 880.004 54.885 880.004 55.225C880.004 55.505 880.074 55.725 880.214 55.885C880.354 56.035 880.564 56.165 880.844 56.275C881.124 56.375 881.469 56.485 881.879 56.605C882.469 56.765 882.984 56.93 883.424 57.1C883.864 57.26 884.204 57.47 884.444 57.73C884.684 57.99 884.804 58.355 884.804 58.825C884.804 59.555 884.529 60.125 883.979 60.535C883.429 60.945 882.704 61.15 881.804 61.15ZM886.415 57.775V53.185H887.435V57.595C887.435 58.485 887.585 59.15 887.885 59.59C888.195 60.03 888.65 60.25 889.25 60.25C889.65 60.25 890.035 60.165 890.405 59.995C890.785 59.815 891.12 59.565 891.41 59.245C891.7 58.915 891.92 58.535 892.07 58.105V53.185H893.09V59.77C893.09 59.91 893.12 60.015 893.18 60.085C893.24 60.145 893.33 60.18 893.45 60.19V61C893.33 61.01 893.235 61.015 893.165 61.015C893.095 61.025 893.03 61.03 892.97 61.03C892.77 61.01 892.595 60.93 892.445 60.79C892.305 60.65 892.23 60.48 892.22 60.28L892.19 59.23C891.85 59.83 891.385 60.3 890.795 60.64C890.215 60.98 889.585 61.15 888.905 61.15C888.085 61.15 887.465 60.865 887.045 60.295C886.625 59.725 886.415 58.885 886.415 57.775ZM895.396 61V53.185H896.416V61H895.396ZM895.396 51.55V50.05H896.416V51.55H895.396ZM901.228 61.15C900.588 61.15 899.993 61.045 899.443 60.835C898.893 60.625 898.418 60.305 898.018 59.875L898.438 59.155C898.878 59.565 899.318 59.865 899.758 60.055C900.208 60.235 900.683 60.325 901.183 60.325C901.793 60.325 902.288 60.205 902.668 59.965C903.048 59.715 903.238 59.36 903.238 58.9C903.238 58.59 903.143 58.355 902.953 58.195C902.773 58.025 902.508 57.89 902.158 57.79C901.818 57.68 901.408 57.565 900.928 57.445C900.388 57.295 899.933 57.14 899.563 56.98C899.203 56.81 898.928 56.6 898.738 56.35C898.558 56.09 898.468 55.755 898.468 55.345C898.468 54.835 898.593 54.415 898.843 54.085C899.103 53.745 899.453 53.49 899.893 53.32C900.343 53.14 900.843 53.05 901.393 53.05C901.993 53.05 902.523 53.145 902.983 53.335C903.443 53.525 903.818 53.79 904.108 54.13L903.613 54.82C903.333 54.5 902.998 54.265 902.608 54.115C902.228 53.955 901.803 53.875 901.333 53.875C901.013 53.875 900.708 53.92 900.418 54.01C900.128 54.09 899.888 54.23 899.698 54.43C899.518 54.62 899.428 54.885 899.428 55.225C899.428 55.505 899.498 55.725 899.638 55.885C899.778 56.035 899.988 56.165 900.268 56.275C900.548 56.375 900.893 56.485 901.303 56.605C901.893 56.765 902.408 56.93 902.848 57.1C903.288 57.26 903.628 57.47 903.868 57.73C904.108 57.99 904.228 58.355 904.228 58.825C904.228 59.555 903.953 60.125 903.403 60.535C902.853 60.945 902.128 61.15 901.228 61.15ZM913.127 61.15C912.557 61.15 912.032 61.045 911.552 60.835C911.082 60.615 910.667 60.315 910.307 59.935C909.957 59.555 909.682 59.12 909.482 58.63C909.292 58.14 909.197 57.62 909.197 57.07C909.197 56.33 909.362 55.655 909.692 55.045C910.022 54.435 910.482 53.95 911.072 53.59C911.662 53.23 912.342 53.05 913.112 53.05C913.842 53.05 914.487 53.22 915.047 53.56C915.607 53.89 916.022 54.34 916.292 54.91L915.302 55.225C915.082 54.825 914.772 54.515 914.372 54.295C913.982 54.065 913.547 53.95 913.067 53.95C912.547 53.95 912.072 54.085 911.642 54.355C911.212 54.625 910.867 54.995 910.607 55.465C910.357 55.935 910.232 56.47 910.232 57.07C910.232 57.66 910.362 58.195 910.622 58.675C910.882 59.155 911.227 59.54 911.657 59.83C912.087 60.11 912.562 60.25 913.082 60.25C913.422 60.25 913.747 60.19 914.057 60.07C914.377 59.95 914.652 59.79 914.882 59.59C915.122 59.38 915.282 59.155 915.362 58.915L916.367 59.215C916.227 59.585 915.992 59.92 915.662 60.22C915.342 60.51 914.962 60.74 914.522 60.91C914.092 61.07 913.627 61.15 913.127 61.15ZM924.539 61H923.519V56.635C923.519 55.755 923.364 55.095 923.054 54.655C922.744 54.205 922.299 53.98 921.719 53.98C921.339 53.98 920.959 54.08 920.579 54.28C920.209 54.47 919.879 54.735 919.589 55.075C919.309 55.405 919.109 55.785 918.989 56.215V61H917.969V50.05H918.989V54.955C919.299 54.375 919.729 53.915 920.279 53.575C920.839 53.225 921.434 53.05 922.064 53.05C922.514 53.05 922.894 53.13 923.204 53.29C923.524 53.45 923.779 53.685 923.969 53.995C924.169 54.295 924.314 54.65 924.404 55.06C924.494 55.46 924.539 55.915 924.539 56.425V61ZM926.084 58.75C926.084 58.26 926.224 57.84 926.504 57.49C926.784 57.13 927.169 56.855 927.659 56.665C928.159 56.465 928.734 56.365 929.384 56.365C929.764 56.365 930.159 56.395 930.569 56.455C930.979 56.515 931.344 56.605 931.664 56.725V56.065C931.664 55.405 931.469 54.88 931.079 54.49C930.689 54.1 930.149 53.905 929.459 53.905C929.039 53.905 928.624 53.985 928.214 54.145C927.814 54.295 927.394 54.52 926.954 54.82L926.564 54.1C927.074 53.75 927.574 53.49 928.064 53.32C928.554 53.14 929.054 53.05 929.564 53.05C930.524 53.05 931.284 53.325 931.844 53.875C932.404 54.425 932.684 55.185 932.684 56.155V59.77C932.684 59.91 932.714 60.015 932.774 60.085C932.834 60.145 932.929 60.18 933.059 60.19V61C932.949 61.01 932.854 61.02 932.774 61.03C932.694 61.04 932.634 61.04 932.594 61.03C932.344 61.02 932.154 60.94 932.024 60.79C931.894 60.64 931.824 60.48 931.814 60.31L931.799 59.74C931.449 60.19 930.994 60.54 930.434 60.79C929.874 61.03 929.304 61.15 928.724 61.15C928.224 61.15 927.769 61.045 927.359 60.835C926.959 60.615 926.644 60.325 926.414 59.965C926.194 59.595 926.084 59.19 926.084 58.75ZM931.319 59.35C931.429 59.21 931.514 59.075 931.574 58.945C931.634 58.815 931.664 58.7 931.664 58.6V57.46C931.324 57.33 930.969 57.23 930.599 57.16C930.239 57.09 929.874 57.055 929.504 57.055C928.774 57.055 928.184 57.2 927.734 57.49C927.284 57.78 927.059 58.175 927.059 58.675C927.059 58.965 927.134 59.24 927.284 59.5C927.434 59.75 927.654 59.96 927.944 60.13C928.234 60.29 928.574 60.37 928.964 60.37C929.454 60.37 929.909 60.275 930.329 60.085C930.759 59.895 931.089 59.65 931.319 59.35ZM934.813 57.775V53.185H935.833V57.595C935.833 58.485 935.983 59.15 936.283 59.59C936.593 60.03 937.048 60.25 937.648 60.25C938.048 60.25 938.433 60.165 938.803 59.995C939.183 59.815 939.518 59.565 939.808 59.245C940.098 58.915 940.318 58.535 940.468 58.105V53.185H941.488V59.77C941.488 59.91 941.518 60.015 941.578 60.085C941.638 60.145 941.728 60.18 941.848 60.19V61C941.728 61.01 941.633 61.015 941.563 61.015C941.493 61.025 941.428 61.03 941.368 61.03C941.168 61.01 940.993 60.93 940.843 60.79C940.703 60.65 940.628 60.48 940.618 60.28L940.588 59.23C940.248 59.83 939.783 60.3 939.193 60.64C938.613 60.98 937.983 61.15 937.303 61.15C936.483 61.15 935.863 60.865 935.443 60.295C935.023 59.725 934.813 58.885 934.813 57.775ZM943.269 57.115C943.269 56.375 943.419 55.7 943.719 55.09C944.029 54.47 944.454 53.975 944.994 53.605C945.534 53.235 946.149 53.05 946.839 53.05C947.489 53.05 948.069 53.225 948.579 53.575C949.099 53.915 949.504 54.33 949.794 54.82V50.05H950.814V59.77C950.814 59.91 950.844 60.015 950.904 60.085C950.964 60.145 951.054 60.18 951.174 60.19V61C950.974 61.03 950.819 61.04 950.709 61.03C950.499 61.02 950.314 60.935 950.154 60.775C949.994 60.615 949.914 60.44 949.914 60.25V59.485C949.604 59.995 949.184 60.4 948.654 60.7C948.124 61 947.574 61.15 947.004 61.15C946.464 61.15 945.964 61.04 945.504 60.82C945.054 60.6 944.659 60.3 944.319 59.92C943.989 59.54 943.729 59.11 943.539 58.63C943.359 58.14 943.269 57.635 943.269 57.115ZM949.794 58.315V55.9C949.664 55.54 949.454 55.215 949.164 54.925C948.874 54.625 948.544 54.39 948.174 54.22C947.814 54.04 947.454 53.95 947.094 53.95C946.674 53.95 946.294 54.04 945.954 54.22C945.614 54.39 945.319 54.625 945.069 54.925C944.829 55.225 944.644 55.565 944.514 55.945C944.384 56.325 944.319 56.715 944.319 57.115C944.319 57.535 944.389 57.935 944.529 58.315C944.679 58.695 944.889 59.035 945.159 59.335C945.429 59.625 945.739 59.85 946.089 60.01C946.439 60.17 946.819 60.25 947.229 60.25C947.489 60.25 947.759 60.2 948.039 60.1C948.319 60 948.584 59.865 948.834 59.695C949.094 59.515 949.309 59.305 949.479 59.065C949.649 58.825 949.754 58.575 949.794 58.315ZM957.204 57.58V50.245H958.224V57.58H957.204ZM957.204 61V59.32H958.224V61H957.204Z" fill="#64675A"/>
    <path d="M910.63 177V69H858.5H958.5" stroke="#64675A"/>
    <path d="M904 434L904 343L904 252" stroke="#64675A" stroke-width="2"/>
</svg>
