<svg xmlns="http://www.w3.org/2000/svg" xmlns:xlink="http://www.w3.org/1999/xlink" width="1080" zoomAndPan="magnify" viewBox="0 0 810 809.999993" height="1080" preserveAspectRatio="xMidYMid meet" version="1.0"><defs><g/><clipPath id="58e9ab76aa"><path d="M 406 157.890625 L 728.742188 157.890625 L 728.742188 481.890625 L 406 481.890625 Z M 406 157.890625 " clip-rule="nonzero"/></clipPath><clipPath id="2b62e4c4f3"><path d="M 243.246094 243 L 566.496094 243 L 566.496094 567 L 243.246094 567 Z M 243.246094 243 " clip-rule="nonzero"/></clipPath><clipPath id="812d9e8b64"><path d="M 118.101562 105 L 441 105 L 441 429 L 118.101562 429 Z M 118.101562 105 " clip-rule="nonzero"/></clipPath></defs><path fill="#879472" d="M 612.730469 192.4375 L 512.8125 444.355469 L 521.738281 447.328125 L 621.652344 195.402344 L 612.730469 192.4375 " fill-opacity="1" fill-rule="nonzero"/><path fill="#879472" d="M 670.355469 232.261719 L 457.867188 400.46875 L 464.109375 407.507812 L 676.601562 239.289062 L 670.355469 232.261719 " fill-opacity="1" fill-rule="nonzero"/><path fill="#879472" d="M 700.351562 295.5625 L 432.226562 334.992188 L 434.113281 344.207031 L 702.246094 304.773438 L 700.351562 295.5625 " fill-opacity="1" fill-rule="nonzero"/><path fill="#879472" d="M 694.679688 365.378906 L 442.757812 265.464844 L 439.785156 274.386719 L 691.71875 374.304688 L 694.679688 365.378906 " fill-opacity="1" fill-rule="nonzero"/><path fill="#879472" d="M 654.851562 423.007812 L 486.644531 210.519531 L 479.609375 216.757812 L 647.828125 429.253906 L 654.851562 423.007812 " fill-opacity="1" fill-rule="nonzero"/><path fill="#879472" d="M 591.550781 453.003906 L 552.125 184.878906 L 542.910156 186.765625 L 582.34375 454.898438 L 591.550781 453.003906 " fill-opacity="1" fill-rule="nonzero"/><g clip-path="url(#58e9ab76aa)"><path fill="#879472" d="M 437.9375 319.882812 C 437.9375 251.335938 498.691406 190.582031 567.234375 190.582031 C 635.773438 190.582031 696.527344 251.335938 696.527344 319.882812 C 696.527344 388.421875 635.773438 449.175781 567.234375 449.175781 C 498.691406 449.175781 437.9375 388.421875 437.9375 319.882812 Z M 414.386719 319.882812 C 414.386719 325.441406 405.546875 331.398438 406.113281 336.808594 C 406.6875 342.328125 416.582031 346.335938 417.710938 351.664062 C 418.855469 357.078125 411.460938 364.757812 413.144531 369.941406 C 414.855469 375.195312 425.367188 377.050781 427.597656 382.042969 C 429.851562 387.074219 424.21875 396.132812 426.964844 400.867188 C 429.726562 405.632812 440.386719 405.253906 443.621094 409.6875 C 446.863281 414.128906 443.226562 424.15625 446.894531 428.234375 C 450.570312 432.316406 460.933594 429.75 465.015625 433.425781 C 469.09375 437.101562 467.605469 447.664062 472.046875 450.898438 C 476.480469 454.128906 486.082031 449.472656 490.84375 452.238281 C 495.582031 454.984375 496.3125 465.628906 501.347656 467.875 C 506.347656 470.101562 514.753906 463.554688 520.011719 465.265625 C 525.199219 466.960938 528.144531 477.210938 533.558594 478.363281 C 538.878906 479.488281 545.738281 471.320312 551.25 471.90625 C 556.664062 472.464844 561.671875 481.882812 567.234375 481.882812 C 572.792969 481.882812 577.808594 472.464844 583.222656 471.90625 C 588.734375 471.320312 595.585938 479.488281 600.917969 478.363281 C 606.328125 477.210938 609.273438 466.960938 614.460938 465.265625 C 619.71875 463.554688 628.132812 470.101562 633.125 467.867188 C 638.160156 465.621094 638.886719 454.976562 643.621094 452.230469 C 648.402344 449.472656 657.992188 454.121094 662.425781 450.898438 C 666.875 447.648438 665.378906 437.09375 669.460938 433.417969 C 673.539062 429.734375 683.890625 432.308594 687.582031 428.226562 C 691.253906 424.148438 687.613281 414.121094 690.863281 409.679688 C 694.085938 405.246094 704.742188 405.621094 707.503906 400.859375 C 710.25 396.125 704.613281 387.066406 706.867188 382.035156 C 709.105469 377.039062 719.609375 375.1875 721.320312 369.941406 C 723.015625 364.753906 715.609375 357.078125 716.753906 351.664062 C 717.890625 346.335938 727.777344 342.328125 728.351562 336.808594 C 728.921875 331.398438 720.078125 325.441406 720.078125 319.882812 C 720.078125 314.320312 728.921875 308.363281 728.351562 302.949219 C 727.777344 297.4375 717.890625 293.429688 716.753906 288.101562 C 715.609375 282.683594 723.003906 275.007812 721.320312 269.816406 C 719.609375 264.566406 709.097656 262.71875 706.867188 257.726562 C 704.613281 252.6875 710.25 243.628906 707.503906 238.890625 C 704.738281 234.132812 694.078125 234.511719 690.84375 230.082031 C 687.605469 225.628906 691.238281 215.601562 687.570312 211.527344 C 683.886719 207.445312 673.539062 210.019531 669.460938 206.339844 C 665.378906 202.664062 666.859375 192.097656 662.417969 188.863281 C 657.984375 185.636719 648.402344 190.289062 643.621094 187.527344 C 638.886719 184.78125 638.152344 174.140625 633.121094 171.890625 C 628.117188 169.65625 619.710938 176.207031 614.453125 174.496094 C 609.265625 172.804688 606.328125 162.554688 600.917969 161.40625 C 595.585938 160.273438 588.734375 168.441406 583.222656 167.859375 C 577.808594 167.300781 572.792969 157.882812 567.234375 157.882812 C 561.679688 157.882812 556.664062 167.296875 551.25 167.859375 C 545.738281 168.441406 538.878906 160.273438 533.558594 161.40625 C 528.136719 162.554688 525.199219 172.804688 520.003906 174.496094 C 514.753906 176.207031 506.339844 169.660156 501.347656 171.894531 C 496.3125 174.144531 495.582031 184.785156 490.835938 187.53125 C 486.0625 190.289062 476.472656 185.640625 472.046875 188.867188 C 467.597656 192.109375 469.085938 202.664062 465.007812 206.339844 C 460.925781 210.027344 450.570312 207.453125 446.886719 211.53125 C 443.21875 215.613281 446.851562 225.644531 443.613281 230.085938 C 440.378906 234.515625 429.71875 234.136719 426.964844 238.898438 C 424.21875 243.636719 429.851562 252.695312 427.597656 257.730469 C 425.359375 262.726562 414.855469 264.570312 413.144531 269.816406 C 411.460938 275.011719 418.855469 282.683594 417.710938 288.097656 C 416.582031 293.425781 406.6875 297.4375 406.113281 302.949219 C 405.546875 308.355469 414.386719 314.320312 414.386719 319.882812 " fill-opacity="1" fill-rule="nonzero"/></g><path fill="#879472" d="M 462.539062 319.875 C 462.539062 377.605469 509.511719 424.574219 567.234375 424.574219 C 624.960938 424.574219 671.917969 377.605469 671.917969 319.875 C 671.917969 262.148438 624.960938 215.183594 567.234375 215.183594 C 509.511719 215.183594 462.539062 262.148438 462.539062 319.875 Z M 452.777344 319.875 C 452.777344 256.765625 504.125 205.417969 567.234375 205.417969 C 630.347656 205.417969 681.691406 256.765625 681.691406 319.875 C 681.691406 382.996094 630.347656 434.347656 567.234375 434.347656 C 504.125 434.347656 452.777344 382.996094 452.777344 319.875 " fill-opacity="1" fill-rule="nonzero"/><path fill="#879472" d="M 544.492188 319.882812 C 544.492188 332.441406 554.675781 342.625 567.226562 342.625 C 579.789062 342.625 589.972656 332.441406 589.972656 319.882812 C 589.972656 307.320312 579.789062 297.140625 567.226562 297.140625 C 554.675781 297.140625 544.492188 307.320312 544.492188 319.882812 " fill-opacity="1" fill-rule="nonzero"/><path fill="#64675a" d="M 450.484375 277.546875 L 350.566406 529.464844 L 359.492188 532.4375 L 459.40625 280.511719 L 450.484375 277.546875 " fill-opacity="1" fill-rule="nonzero"/><path fill="#64675a" d="M 508.109375 317.371094 L 295.621094 485.578125 L 301.863281 492.617188 L 514.355469 324.398438 L 508.109375 317.371094 " fill-opacity="1" fill-rule="nonzero"/><path fill="#64675a" d="M 538.105469 380.671875 L 269.976562 420.101562 L 271.867188 429.316406 L 540 389.882812 L 538.105469 380.671875 " fill-opacity="1" fill-rule="nonzero"/><path fill="#64675a" d="M 532.433594 450.488281 L 280.511719 350.574219 L 277.539062 359.496094 L 529.46875 459.414062 L 532.433594 450.488281 " fill-opacity="1" fill-rule="nonzero"/><path fill="#64675a" d="M 492.605469 508.117188 L 324.398438 295.628906 L 317.363281 301.867188 L 485.578125 514.367188 L 492.605469 508.117188 " fill-opacity="1" fill-rule="nonzero"/><path fill="#64675a" d="M 429.304688 538.113281 L 389.878906 269.988281 L 380.664062 271.875 L 420.09375 540.007812 L 429.304688 538.113281 " fill-opacity="1" fill-rule="nonzero"/><g clip-path="url(#2b62e4c4f3)"><path fill="#64675a" d="M 275.691406 404.992188 C 275.691406 336.445312 336.445312 275.691406 404.984375 275.691406 C 473.527344 275.691406 534.28125 336.445312 534.28125 404.992188 C 534.28125 473.535156 473.527344 534.285156 404.984375 534.285156 C 336.445312 534.285156 275.691406 473.535156 275.691406 404.992188 Z M 252.140625 404.992188 C 252.140625 410.550781 243.300781 416.507812 243.867188 421.917969 C 244.441406 427.4375 254.335938 431.445312 255.464844 436.773438 C 256.609375 442.1875 249.214844 449.871094 250.898438 455.050781 C 252.609375 460.308594 263.121094 462.160156 265.351562 467.152344 C 267.605469 472.183594 261.972656 481.242188 264.71875 485.980469 C 267.480469 490.742188 278.140625 490.363281 281.375 494.796875 C 284.617188 499.238281 280.980469 509.265625 284.648438 513.34375 C 288.324219 517.425781 298.6875 514.859375 302.769531 518.535156 C 306.847656 522.214844 305.359375 532.773438 309.800781 536.007812 C 314.234375 539.238281 323.835938 534.582031 328.597656 537.347656 C 333.335938 540.09375 334.066406 550.738281 339.101562 552.984375 C 344.101562 555.210938 352.507812 548.664062 357.765625 550.375 C 362.953125 552.070312 365.898438 562.320312 371.3125 563.472656 C 376.632812 564.597656 383.492188 556.429688 389.003906 557.015625 C 394.417969 557.574219 399.425781 566.992188 404.984375 566.992188 C 410.546875 566.992188 415.5625 557.574219 420.976562 557.015625 C 426.488281 556.429688 433.339844 564.597656 438.671875 563.472656 C 444.082031 562.320312 447.027344 552.070312 452.214844 550.375 C 457.472656 548.664062 465.886719 555.210938 470.878906 552.976562 C 475.914062 550.730469 476.640625 540.085938 481.375 537.339844 C 486.15625 534.582031 495.746094 539.230469 500.179688 536.007812 C 504.628906 532.757812 503.132812 522.203125 507.214844 518.527344 C 511.292969 514.84375 521.644531 517.417969 525.335938 513.335938 C 529.007812 509.257812 525.363281 499.230469 528.617188 494.789062 C 531.835938 490.355469 542.496094 490.734375 545.257812 485.96875 C 548.003906 481.234375 542.367188 472.175781 544.621094 467.144531 C 546.859375 462.148438 557.363281 460.300781 559.074219 455.050781 C 560.769531 449.863281 553.363281 442.1875 554.507812 436.773438 C 555.644531 431.445312 565.53125 427.4375 566.105469 421.917969 C 566.671875 416.507812 557.832031 410.550781 557.832031 404.992188 C 557.832031 399.433594 566.671875 393.472656 566.105469 388.058594 C 565.53125 382.546875 555.644531 378.539062 554.507812 373.210938 C 553.363281 367.792969 560.757812 360.117188 559.074219 354.925781 C 557.363281 349.675781 546.851562 347.832031 544.621094 342.835938 C 542.367188 337.800781 548.003906 328.738281 545.257812 324 C 542.492188 319.242188 531.832031 319.621094 528.597656 315.191406 C 525.359375 310.738281 528.992188 300.714844 525.324219 296.636719 C 521.640625 292.554688 511.292969 295.128906 507.214844 291.449219 C 503.132812 287.773438 504.613281 277.207031 500.171875 273.972656 C 495.738281 270.746094 486.15625 275.398438 481.375 272.636719 C 476.640625 269.890625 475.90625 259.25 470.871094 257 C 465.871094 254.765625 457.464844 261.316406 452.207031 259.605469 C 447.015625 257.914062 444.082031 247.664062 438.671875 246.515625 C 433.339844 245.382812 426.488281 253.550781 420.976562 252.96875 C 415.5625 252.410156 410.546875 242.992188 404.984375 242.992188 C 399.433594 242.992188 394.417969 252.40625 389.003906 252.96875 C 383.492188 253.550781 376.632812 245.382812 371.3125 246.515625 C 365.890625 247.664062 362.953125 257.914062 357.753906 259.605469 C 352.507812 261.316406 344.09375 254.769531 339.101562 257.003906 C 334.066406 259.253906 333.335938 269.894531 328.589844 272.640625 C 323.816406 275.398438 314.226562 270.75 309.800781 273.976562 C 305.351562 277.21875 306.839844 287.773438 302.761719 291.453125 C 298.679688 295.136719 288.324219 292.5625 284.640625 296.640625 C 280.972656 300.722656 284.605469 310.753906 281.367188 315.195312 C 278.132812 319.625 267.472656 319.246094 264.71875 324.007812 C 261.972656 328.746094 267.605469 337.804688 265.351562 342.839844 C 263.113281 347.835938 252.609375 349.679688 250.898438 354.925781 C 249.214844 360.121094 256.609375 367.792969 255.464844 373.207031 C 254.335938 378.535156 244.441406 382.546875 243.867188 388.058594 C 243.300781 393.46875 252.140625 399.433594 252.140625 404.992188 " fill-opacity="1" fill-rule="nonzero"/></g><path fill="#64675a" d="M 300.292969 404.984375 C 300.292969 462.71875 347.265625 509.683594 404.984375 509.683594 C 462.714844 509.683594 509.671875 462.71875 509.671875 404.984375 C 509.671875 347.257812 462.714844 300.292969 404.984375 300.292969 C 347.265625 300.292969 300.292969 347.257812 300.292969 404.984375 Z M 290.53125 404.984375 C 290.53125 341.875 341.878906 290.527344 404.984375 290.527344 C 468.097656 290.527344 519.445312 341.875 519.445312 404.984375 C 519.445312 468.105469 468.097656 519.457031 404.984375 519.457031 C 341.878906 519.457031 290.53125 468.105469 290.53125 404.984375 " fill-opacity="1" fill-rule="nonzero"/><path fill="#64675a" d="M 382.246094 404.992188 C 382.246094 417.550781 392.429688 427.734375 404.980469 427.734375 C 417.542969 427.734375 427.726562 417.550781 427.726562 404.992188 C 427.726562 392.433594 417.542969 382.25 404.980469 382.25 C 392.429688 382.25 382.246094 392.433594 382.246094 404.992188 " fill-opacity="1" fill-rule="nonzero"/><path fill="#d6cdbb" d="M 325.339844 139.546875 L 225.421875 391.464844 L 234.347656 394.4375 L 334.261719 142.511719 L 325.339844 139.546875 " fill-opacity="1" fill-rule="nonzero"/><path fill="#d6cdbb" d="M 382.964844 179.371094 L 170.476562 347.578125 L 176.71875 354.617188 L 389.210938 186.398438 L 382.964844 179.371094 " fill-opacity="1" fill-rule="nonzero"/><path fill="#d6cdbb" d="M 412.960938 242.671875 L 144.832031 282.101562 L 146.71875 291.316406 L 414.851562 251.882812 L 412.960938 242.671875 " fill-opacity="1" fill-rule="nonzero"/><path fill="#d6cdbb" d="M 407.285156 312.488281 L 155.367188 212.574219 L 152.390625 221.496094 L 404.324219 321.414062 L 407.285156 312.488281 " fill-opacity="1" fill-rule="nonzero"/><path fill="#d6cdbb" d="M 367.460938 370.117188 L 199.253906 157.628906 L 192.214844 163.867188 L 360.433594 376.367188 L 367.460938 370.117188 " fill-opacity="1" fill-rule="nonzero"/><path fill="#d6cdbb" d="M 304.160156 400.113281 L 264.730469 131.988281 L 255.515625 133.875 L 294.949219 402.007812 L 304.160156 400.113281 " fill-opacity="1" fill-rule="nonzero"/><g clip-path="url(#812d9e8b64)"><path fill="#d6cdbb" d="M 150.542969 266.992188 C 150.542969 198.445312 211.296875 137.691406 279.839844 137.691406 C 348.382812 137.691406 409.136719 198.445312 409.136719 266.992188 C 409.136719 335.535156 348.382812 396.285156 279.839844 396.285156 C 211.296875 396.285156 150.542969 335.535156 150.542969 266.992188 Z M 126.996094 266.992188 C 126.996094 272.550781 118.152344 278.507812 118.722656 283.917969 C 119.296875 289.4375 129.191406 293.445312 130.320312 298.773438 C 131.460938 304.1875 124.066406 311.871094 125.753906 317.050781 C 127.464844 322.308594 137.976562 324.160156 140.207031 329.152344 C 142.460938 334.183594 136.824219 343.242188 139.574219 347.980469 C 142.335938 352.742188 152.996094 352.363281 156.230469 356.796875 C 159.46875 361.238281 155.832031 371.265625 159.503906 375.347656 C 163.179688 379.425781 173.542969 376.859375 177.621094 380.535156 C 181.703125 384.214844 180.214844 394.773438 184.65625 398.007812 C 189.089844 401.238281 198.6875 396.582031 203.449219 399.347656 C 208.1875 402.09375 208.921875 412.738281 213.953125 414.984375 C 218.957031 417.210938 227.363281 410.664062 232.617188 412.375 C 237.808594 414.070312 240.753906 424.320312 246.164062 425.472656 C 251.488281 426.597656 258.347656 418.429688 263.859375 419.015625 C 269.273438 419.574219 274.28125 428.992188 279.839844 428.992188 C 285.402344 428.992188 290.417969 419.574219 295.832031 419.015625 C 301.339844 418.429688 308.191406 426.597656 313.523438 425.472656 C 318.933594 424.320312 321.878906 414.070312 327.070312 412.375 C 332.328125 410.664062 340.742188 417.210938 345.734375 414.976562 C 350.769531 412.730469 351.492188 402.085938 356.230469 399.339844 C 361.007812 396.582031 370.597656 401.230469 375.035156 398.007812 C 379.484375 394.757812 377.988281 384.203125 382.066406 380.527344 C 386.144531 376.84375 396.5 379.417969 400.1875 375.335938 C 403.863281 371.257812 400.21875 361.230469 403.46875 356.789062 C 406.691406 352.355469 417.351562 352.734375 420.109375 347.96875 C 422.855469 343.234375 417.222656 334.175781 419.472656 329.144531 C 421.714844 324.148438 432.21875 322.300781 433.925781 317.050781 C 435.621094 311.863281 428.21875 304.1875 429.363281 298.773438 C 430.5 293.445312 440.382812 289.4375 440.960938 283.917969 C 441.527344 278.507812 432.683594 272.550781 432.683594 266.992188 C 432.683594 261.433594 441.527344 255.472656 440.960938 250.058594 C 440.382812 244.546875 430.5 240.539062 429.363281 235.210938 C 428.21875 229.792969 435.613281 222.117188 433.925781 216.925781 C 432.21875 211.675781 421.703125 209.832031 419.472656 204.835938 C 417.222656 199.800781 422.855469 190.738281 420.109375 186 C 417.34375 181.242188 406.683594 181.621094 403.453125 177.191406 C 400.214844 172.738281 403.847656 162.714844 400.179688 158.636719 C 396.492188 154.554688 386.144531 157.128906 382.066406 153.449219 C 377.988281 149.773438 379.464844 139.207031 375.023438 135.972656 C 370.59375 132.746094 361.007812 137.398438 356.230469 134.636719 C 351.492188 131.890625 350.761719 121.25 345.726562 119 C 340.726562 116.765625 332.316406 123.316406 327.0625 121.605469 C 321.871094 119.914062 318.933594 109.664062 313.523438 108.515625 C 308.191406 107.382812 301.339844 115.550781 295.832031 114.96875 C 290.417969 114.410156 285.402344 104.992188 279.839844 104.992188 C 274.289062 104.992188 269.273438 114.40625 263.859375 114.96875 C 258.347656 115.550781 251.488281 107.382812 246.164062 108.515625 C 240.746094 109.664062 237.808594 119.914062 232.609375 121.605469 C 227.363281 123.316406 218.949219 116.769531 213.953125 119.003906 C 208.921875 121.253906 208.1875 131.894531 203.441406 134.640625 C 198.671875 137.398438 189.082031 132.75 184.65625 135.976562 C 180.207031 139.21875 181.695312 149.773438 177.617188 153.453125 C 173.535156 157.136719 163.179688 154.5625 159.492188 158.640625 C 155.828125 162.722656 159.460938 172.753906 156.222656 177.195312 C 152.988281 181.625 142.328125 181.246094 139.574219 186.007812 C 136.824219 190.746094 142.460938 199.804688 140.207031 204.839844 C 137.96875 209.835938 127.464844 211.679688 125.753906 216.925781 C 124.066406 222.121094 131.460938 229.792969 130.320312 235.207031 C 129.191406 240.535156 119.296875 244.546875 118.722656 250.058594 C 118.152344 255.46875 126.996094 261.433594 126.996094 266.992188 " fill-opacity="1" fill-rule="nonzero"/></g><path fill="#d6cdbb" d="M 175.148438 266.984375 C 175.148438 324.71875 222.117188 371.683594 279.839844 371.683594 C 337.570312 371.683594 384.527344 324.71875 384.527344 266.984375 C 384.527344 209.257812 337.570312 162.292969 279.839844 162.292969 C 222.117188 162.292969 175.148438 209.257812 175.148438 266.984375 Z M 165.382812 266.984375 C 165.382812 203.875 216.730469 152.527344 279.839844 152.527344 C 342.953125 152.527344 394.296875 203.875 394.296875 266.984375 C 394.296875 330.105469 342.953125 381.457031 279.839844 381.457031 C 216.730469 381.457031 165.382812 330.105469 165.382812 266.984375 " fill-opacity="1" fill-rule="nonzero"/><path fill="#d6cdbb" d="M 257.101562 266.992188 C 257.101562 279.550781 267.285156 289.734375 279.835938 289.734375 C 292.398438 289.734375 302.578125 279.550781 302.578125 266.992188 C 302.578125 254.433594 292.398438 244.25 279.835938 244.25 C 267.285156 244.25 257.101562 254.433594 257.101562 266.992188 " fill-opacity="1" fill-rule="nonzero"/><g fill="#64675a" fill-opacity="1"><g transform="translate(205.064993, 710.849984)"><g><path d="M 35.8125 -63.546875 C 40.5 -63.546875 45.109375 -62.582031 49.640625 -60.65625 C 54.171875 -58.738281 58.023438 -56.160156 61.203125 -52.921875 L 51.9375 -41.9375 C 49.894531 -44.457031 47.445312 -46.453125 44.59375 -47.921875 C 41.738281 -49.390625 38.90625 -50.125 36.09375 -50.125 C 31.113281 -50.125 26.941406 -48.367188 23.578125 -44.859375 C 20.222656 -41.347656 18.546875 -37.015625 18.546875 -31.859375 C 18.546875 -26.578125 20.222656 -22.164062 23.578125 -18.625 C 26.941406 -15.082031 31.113281 -13.3125 36.09375 -13.3125 C 38.726562 -13.3125 41.46875 -13.972656 44.3125 -15.296875 C 47.164062 -16.617188 49.707031 -18.421875 51.9375 -20.703125 L 61.296875 -10.796875 C 57.867188 -7.316406 53.828125 -4.523438 49.171875 -2.421875 C 44.523438 -0.328125 39.894531 0.71875 35.28125 0.71875 C 25.800781 0.71875 17.910156 -2.367188 11.609375 -8.546875 C 5.304688 -14.722656 2.15625 -22.4375 2.15625 -31.6875 C 2.15625 -40.738281 5.363281 -48.3125 11.78125 -54.40625 C 18.207031 -60.5 26.21875 -63.546875 35.8125 -63.546875 Z M 35.8125 -63.546875 "/></g></g></g><g fill="#64675a" fill-opacity="1"><g transform="translate(261.224925, 710.849984)"><g><path d="M 22.3125 0 L 6.296875 0 L 6.296875 -63 L 22.3125 -63 Z M 22.3125 0 "/></g></g></g><g fill="#64675a" fill-opacity="1"><g transform="translate(283.724889, 710.849984)"><g><path d="M 54.453125 -50.125 L 35.453125 -50.125 L 35.453125 0 L 19.4375 0 L 19.4375 -50.125 L 0.625 -50.125 L 0.625 -63.09375 L 54.453125 -63.09375 Z M 54.453125 -50.125 "/></g></g></g><g fill="#64675a" fill-opacity="1"><g transform="translate(332.594832, 710.849984)"><g><path d="M 38.796875 -20.34375 L 38.796875 0 L 22.859375 0 L 22.859375 -19.890625 L -0.453125 -63 L 15.5625 -63 L 30.78125 -35.546875 L 45.625 -63 L 61.65625 -63 Z M 38.796875 -20.34375 "/></g></g></g><g fill="#64675a" fill-opacity="1"><g transform="translate(387.674774, 710.849984)"><g/></g></g><g fill="#64675a" fill-opacity="1"><g transform="translate(402.434756, 710.849984)"><g><path d="M 6.296875 -63 L 36.09375 -63 C 43.164062 -63 48.785156 -61.570312 52.953125 -58.71875 C 57.128906 -55.875 59.21875 -52.050781 59.21875 -47.25 C 59.21875 -43.945312 58.253906 -41.050781 56.328125 -38.5625 C 54.410156 -36.070312 51.773438 -34.347656 48.421875 -33.390625 C 52.378906 -32.609375 55.523438 -30.773438 57.859375 -27.890625 C 60.203125 -25.015625 61.375 -21.535156 61.375 -17.453125 C 61.375 -12.117188 59.195312 -7.875 54.84375 -4.71875 C 50.5 -1.570312 44.609375 0 37.171875 0 L 6.296875 0 Z M 22.234375 -50.765625 L 22.234375 -37.796875 L 35.1875 -37.796875 C 37.53125 -37.796875 39.390625 -38.378906 40.765625 -39.546875 C 42.148438 -40.722656 42.84375 -42.332031 42.84375 -44.375 C 42.84375 -46.351562 42.148438 -47.910156 40.765625 -49.046875 C 39.390625 -50.191406 37.53125 -50.765625 35.1875 -50.765625 Z M 22.234375 -26.28125 L 22.234375 -12.328125 L 35.1875 -12.328125 C 38.1875 -12.328125 40.539062 -12.957031 42.25 -14.21875 C 43.957031 -15.476562 44.8125 -17.21875 44.8125 -19.4375 C 44.8125 -21.539062 43.957031 -23.207031 42.25 -24.4375 C 40.539062 -25.664062 38.1875 -26.28125 35.1875 -26.28125 Z M 22.234375 -26.28125 "/></g></g></g><g fill="#64675a" fill-opacity="1"><g transform="translate(460.664695, 710.849984)"><g><path d="M 22.3125 0 L 6.296875 0 L 6.296875 -63 L 22.3125 -63 Z M 22.3125 0 "/></g></g></g><g fill="#64675a" fill-opacity="1"><g transform="translate(483.164671, 710.849984)"><g><path d="M 47.34375 0 L 30.6875 -24.75 L 22.3125 -15.484375 L 22.3125 0 L 6.296875 0 L 6.296875 -63 L 22.3125 -63 L 22.3125 -35.734375 L 46.4375 -63 L 64.984375 -63 L 41.578125 -36.90625 L 66.515625 0 Z M 47.34375 0 "/></g></g></g><g fill="#64675a" fill-opacity="1"><g transform="translate(544.274585, 710.849984)"><g><path d="M 55.625 -50.40625 L 22.3125 -50.40625 L 22.3125 -37.890625 L 52.375 -37.890625 L 52.375 -25.296875 L 22.3125 -25.296875 L 22.3125 -12.59375 L 56.609375 -12.59375 L 56.609375 0 L 6.296875 0 L 6.296875 -63 L 55.625 -63 Z M 55.625 -50.40625 "/></g></g></g></svg>