<svg xmlns="http://www.w3.org/2000/svg" xmlns:xlink="http://www.w3.org/1999/xlink" width="1024" zoomAndPan="magnify" viewBox="0 0 768 767.999994" height="1024" preserveAspectRatio="xMidYMid meet" version="1.0"><path fill="#879472" d="M 765.753906 549.398438 L 686.644531 145.242188 L 488.265625 172.957031 C 459.667969 113.730469 403.976562 73.40625 340.21875 73.40625 C 267.019531 73.40625 204.480469 126.578125 181.332031 200.476562 L 21.796875 200.476562 L 0 599.820312 C 0 623.878906 19.515625 643.40625 43.59375 643.40625 L 68.183594 643.40625 L 68.414062 646.144531 L 68.480469 646.792969 C 72.296875 674.046875 95.878906 694.585938 123.367188 694.585938 C 125.929688 694.585938 128.523438 694.40625 131.085938 694.046875 L 493.714844 643.394531 L 636.699219 643.394531 C 654.289062 643.394531 669.367188 632.914062 676.257812 617.914062 L 718.503906 612.011719 C 733.175781 609.953125 746.175781 602.3125 755.109375 590.496094 C 764.015625 578.660156 767.8125 564.058594 765.753906 549.398438 Z M 251.25 124.835938 C 276.234375 103.804688 306.945312 91.210938 340.210938 91.210938 C 373.460938 91.210938 404.152344 103.792969 429.125 124.808594 C 468.675781 154.261719 496.3125 202.648438 501.730469 258.492188 C 510.464844 263.023438 516.46875 272.074219 516.46875 282.597656 C 516.46875 293.980469 509.476562 303.714844 499.539062 307.78125 C 496.375 309.078125 492.917969 309.808594 489.265625 309.808594 C 484.800781 309.808594 480.585938 308.710938 476.882812 306.804688 C 468.089844 302.292969 462.050781 293.15625 462.050781 282.597656 C 462.050781 273.605469 466.453125 265.679688 473.1875 260.722656 C 470.113281 229.960938 459.328125 201.898438 443.082031 179.265625 L 291.296875 200.46875 L 224.636719 200.46875 C 215.507812 218.578125 209.402344 238.953125 207.230469 260.75 C 213.941406 265.703125 218.316406 273.613281 218.316406 282.597656 C 218.316406 293.15625 212.289062 302.292969 203.503906 306.804688 C 199.773438 308.710938 195.585938 309.808594 191.105469 309.808594 C 187.460938 309.808594 183.996094 309.078125 180.828125 307.78125 C 170.894531 303.722656 163.894531 293.988281 163.894531 282.597656 C 163.894531 272.066406 169.921875 262.996094 178.683594 258.476562 C 184.160156 202.613281 211.769531 154.269531 251.25 124.835938 Z M 127.808594 670.539062 C 126.335938 670.734375 124.847656 670.835938 123.375 670.835938 C 107.765625 670.835938 94.355469 659.25 92.050781 643.796875 L 92.015625 643.386719 L 322.101562 643.386719 Z M 736.140625 576.183594 C 731.023438 582.933594 723.589844 587.3125 715.210938 588.488281 L 679.933594 593.40625 L 658.480469 200.449219 L 499.089844 200.449219 C 498.578125 198.832031 498.074219 197.214844 497.515625 195.621094 L 667.632812 171.851562 L 742.253906 552.980469 C 743.367188 561.265625 741.179688 569.5 736.140625 576.183594 Z M 736.140625 576.183594 " fill-opacity="1" fill-rule="nonzero"/><path fill="#879472" d="M 183.605469 277.972656 L 183.640625 278.570312 C 183.867188 283.015625 187.53125 286.503906 191.957031 286.503906 C 196.386719 286.503906 200.039062 283.023438 200.265625 278.570312 L 200.328125 277.488281 C 200.90625 189.007812 263.4375 117.238281 340.21875 117.238281 C 417.085938 117.238281 479.660156 189.1875 480.101562 277.804688 L 480.152344 278.578125 C 480.382812 283.023438 484.042969 286.503906 488.472656 286.503906 C 492.90625 286.503906 496.550781 283.023438 496.808594 278.570312 L 496.875 277.34375 C 495.972656 179.539062 425.917969 100.492188 340.246094 100.492188 C 254.214844 100.5 183.960938 180.109375 183.605469 277.972656 Z M 183.605469 277.972656 " fill-opacity="1" fill-rule="nonzero"/></svg>