<svg width="41" height="21" viewBox="0 0 41 21" fill="none" xmlns="http://www.w3.org/2000/svg">
    <path d="M2.28882e-05 20.3445H7.66672C7.53499 19.2315 7.58768 16.3377 8.85229 13.6665C1.96017 13.6665 2.28882e-05 15.2972 2.28882e-05 17.4714V20.3445Z" fill="#64675A"/>
    <path d="M41 20.3445H33.3333C33.465 19.2315 33.4123 16.3377 32.1477 13.6665C39.0398 13.6665 41 15.2972 41 17.4714V20.3445Z" fill="#879472"/>
    <path d="M10.0948 20.2669H20.4224H30.6724C31.3454 17.2643 30.2376 11.2593 20.4224 11.2593C10.6073 11.2593 9.44767 17.2643 10.0948 20.2669Z" fill="#D7DA9B"/>
    <circle cx="20.4223" cy="5.04735" r="5.04735" fill="#D7DA9B"/>
    <circle cx="34.089" cy="8.46404" r="3.49432" fill="#879472"/>
    <circle cx="6.75555" cy="8.46404" r="3.49432" fill="#64675A"/>
</svg>
